<?xml version="1.0" encoding="iso-8859-1"?>
<!-- Generator: Adobe Illustrator 18.0.0, SVG Export Plug-In . SVG Version: 6.00 Build 0)  -->
<!DOCTYPE svg PUBLIC "-//W3C//DTD SVG 1.1//EN" "http://www.w3.org/Graphics/SVG/1.1/DTD/svg11.dtd">
<svg version="1.1" id="_x31_" xmlns="http://www.w3.org/2000/svg" xmlns:xlink="http://www.w3.org/1999/xlink" x="0px" y="0px"
	 viewBox="0 0 512 512" style="enable-background:new 0 0 512 512;" xml:space="preserve">
<g>
	<rect style="fill:#9CD1AB;" width="512" height="512"/>
	<polygon style="opacity:0.1;fill:#231815;" points="512,321.946 512,512 207.36,512 92.877,397.568 216.576,273.869 
		340.224,150.17 	"/>
	<g>
		<g>
			
				<rect x="144.723" y="249.561" transform="matrix(0.7071 -0.7071 0.7071 0.7071 -124.5737 237.995)" style="fill:#C4C3C3;" width="160.542" height="39.615"/>
			<polygon style="fill:#DE6042;" points="101.807,413.018 81.367,392.585 81.367,371.989 180.163,273.192 221.172,314.198 
				122.357,413.013 			"/>
		</g>
		<polygon style="fill:#ADACAD;" points="265.822,200.528 227.191,239.154 283.215,239.154 293.49,228.884 		"/>
		<g>
			<path style="fill:#7C7C7D;" d="M262.991,159.929l0.836,1.04C263.492,160.552,263.209,160.186,262.991,159.929z M264.398,161.65
				c-0.049-0.045-0.091-0.105-0.15-0.166l0.204,0.267c-0.005-0.023-0.026-0.047-0.035-0.085
				C264.417,161.667,264.408,161.66,264.398,161.65z M214.74,124.542c17.632,7.054,36.432,23.501,47.826,34.888l0.068,0.068
				c0,0,0.007,0.014,0.03,0.03c0.649,0.668,1.23,1.372,1.733,2.122c0.01,0.01,0.019,0.016,0.019,0.016
				c0.237,0.319,0.49,0.637,0.745,0.956l-0.71-0.871c5.052,7.668,2.646,19.791-7.961,30.394l-4.232,13.99l36.816,36.811
				l14.432-3.785l13.322-13.32c6.652-6.652,18.189-8.443,28.766,2.132c5.907,5.909,2.909,14.467,4.099,21.363
				c0.384,2.243,1.203,4.309,2.951,6.052l25.871,25.867c3.672,3.681,9.64,3.672,13.312-0.005l36.041-36.036
				c3.672-3.677,3.682-9.647,0.01-13.318l-25.871-25.876c-1.747-1.738-3.808-2.565-6.057-2.942
				c-6.891-1.192-15.453,1.804-21.36-4.096c-6.933-6.935-0.047-15.938-5.659-25.246c-0.74-1.243-1.7-2.487-2.942-3.724
				c0,0-29.801-29.806-50.169-50.174c-25.859-25.86-70.517-24.297-98.133-13.526C206.911,108.87,203.512,120.035,214.74,124.542z"/>
			<path style="fill:#808081;" d="M395.952,203.078l-46.257,46.257c0.384,2.243,1.203,4.309,2.951,6.052l25.871,25.867
				c3.672,3.681,9.64,3.672,13.312-0.005l36.041-36.036c3.672-3.677,3.682-9.647,0.01-13.318l-25.871-25.876
				C400.262,204.282,398.2,203.455,395.952,203.078z"/>
			<path style="fill:#808081;" d="M214.74,124.542c17.632,7.054,36.432,23.501,47.826,34.888l0.068,0.068c0,0,0.007,0.014,0.03,0.03
				c0.037,0.061,0.129,0.166,0.255,0.318l0.071,0.082l0.836,1.04l0.422,0.515l0.204,0.267c5.052,7.668,2.646,19.791-7.961,30.394
				l-4.232,13.99l36.816,36.811l14.432-3.785l65.425-65.426c-0.74-1.243-1.7-2.487-2.942-3.724c0,0-29.801-29.806-50.169-50.174
				c-25.859-25.86-70.517-24.297-98.133-13.526C206.911,108.87,203.512,120.035,214.74,124.542z"/>
			<path style="fill:#9C9C9D;" d="M427.875,245.213l-36.031,36.041c-3.682,3.681-9.654,3.681-13.331,0l49.363-49.368
				C431.552,235.566,431.552,241.536,427.875,245.213z"/>
		</g>
	</g>
</g>
</svg>
